# xmcd
#
# Track frame offsets:
#	150
#	14710
#	27692
#	42061
#	56105
#	69293
#	81514
#	90911
#	104958
#	119386
#	133957
#	147799
#	163026
#	176315
#	188386
#	200248
#	212780
#	226971
#
# Disc length: 3210 seconds
#
# Revision: 0
# Processed by: cddbd v1.5.2PL0 Copyright (c) Steve Scherf et al.
# Submitted via: EasyCDDAExtractor 16.0.6.1
#
DISCID=090c8812
DTITLE=Λύδια Γιώτα - Τραγούδια 45 στροφές-Λύδια Γιώτα 3
DYEAR=1998
DGENRE=Λαϊκή
TTITLE0=Λύδια Γιώτα-Χρηστάκης - Άλλοι μπήκανε στη μέση [1963, Σ. Ατταλίδη-Ιωσ.
TTITLE0=Κερπελή-Άλκη Νεράντζη]
TTITLE1=Λύδια Γιώτα - Κάποτε θα βρω λησμονιά κι εγώ [Θ. Σοφού-Γ. Μαλλίδη]
TTITLE2=Λύδια Γιώτα - Η πορεία (Στην πορεία της αγάπης) 1967, Χρ. Κολοκοτρώνη]
TTITLE3=Λύδια Γιώτα-Χιώτης Μανώλης - Γι' άλλη με πέρασες [1964, Στρ. Ατταλίδη-
TTITLE3=Γ. Κοινούση]
TTITLE4=Λύδια Γιώτα-Ατταλίδης Στράτος - Σαν πληγωμένο αηδόνι [Ν. Δαλέζιου-Εμμ.
TTITLE4=Αμπελιώτη]
TTITLE5=Λύδια Γιώτα-Χρηστάκης - Δεν θέλω, δεν θέλω [1966, Μ. Καράμπελα-Π. Αλαφ
TTITLE5=ούζου]
TTITLE6=Λύδια Γιώτα - Τον αγάπησα στ' αλήθεια [1964, Π. Πετσά-Κ. Ζήτη]
TTITLE7=Λύδια Γιώτα - Εγώ θα σ' αγαπώ [1964, Γ. Λαύκα]
TTITLE8=Λύδια Γιώτα-Καπάτος Μ. - Θα μού φύγεις για πάντα [1965, Χρ. Κυρίτση-Σπ
TTITLE8=Κεφαλόπουλου]
TTITLE9=Λύδια Γιώτα - Πρόσεχε την μαννούλα σου [1960, Στ. Καζαντζίδη]
TTITLE10=Λύδια Γιώτα - Γλυκέ μου άντρα γειά σου [1965, Β. Τσιτσάνη]
TTITLE11=Λύδια Γιώτα-Χιώτης Μανώλης - Του χωρισμού η ώρα [1964, Μπ. Δαλιάνη-Ά.
TTITLE11=Πάνου]
TTITLE12=Λύδια Γιώτα - Ας ξημέρωνε μιά μέρα [1967, Χρ. Κολοκοτρώνη]
TTITLE13=Λύδια Γιώτα - Καρδιά πικρή [1966, Δ. Τζάρα-Θ. Πολυκανδριώτη]
TTITLE14=Λύδια Γιώτα - Χριστούγεννα, πρωτοχρονιά [1961, Θ. Δερβενιώτη-Χρ. Κολο
TTITLE14=κοτρώνη]
TTITLE15=Λύδια Γιώτα - Άλλο πια μην περιμένεις [1964, Στ. Μακρυδάκη-Ν. Δαλέζιο
TTITLE15=υ]
TTITLE16=Λύδια Γιώτα - Δίχως γράμμα μη μάς αφήσεις [1960, Μπ. Μπακάλη-Κ. Βίρβο
TTITLE16=υ]
TTITLE17=Λύδια Γιώτα-Ατταλίδης Στράτος - Φύγαμε και οι δυό [1965, Βασ. Βασιλει
TTITLE17=άδη-Δ. Γκούτη]
EXTD=
EXTT0=
EXTT1=
EXTT2=
EXTT3=
EXTT4=
EXTT5=
EXTT6=
EXTT7=
EXTT8=
EXTT9=
EXTT10=
EXTT11=
EXTT12=
EXTT13=
EXTT14=
EXTT15=
EXTT16=
EXTT17=
PLAYORDER=
